<?xml version="1.0" standalone="no"?>
<!DOCTYPE svg PUBLIC "-//W3C//DTD SVG 20010904//EN"
 "http://www.w3.org/TR/2001/REC-SVG-20010904/DTD/svg10.dtd">
<svg version="1.0" xmlns="http://www.w3.org/2000/svg"
 width="512.000000pt" height="512.000000pt" viewBox="0 0 512.000000 512.000000"
 preserveAspectRatio="xMidYMid meet">
<metadata>
Created by potrace 1.14, written by Peter Selinger 2001-2017
</metadata>
<g transform="translate(0.000000,512.000000) scale(0.100000,-0.100000)"
fill="#000000" stroke="none">
<path d="M620 5105 c-289 -59 -517 -272 -597 -555 -17 -62 -18 -158 -18 -1985
0 -2164 -7 -1964 79 -2140 98 -197 272 -342 486 -402 62 -17 158 -18 1985 -18
2164 0 1964 -7 2140 79 197 98 342 272 402 486 17 62 18 158 18 1985 0 2164 7
1964 -79 2140 -97 195 -267 337 -481 402 -57 17 -161 18 -1965 19 -1556 2
-1917 0 -1970 -11z m915 -1240 c257 -70 484 -294 552 -545 24 -91 24 -310 -1
-399 -48 -175 -170 -339 -332 -446 -242 -161 -596 -165 -840 -10 -169 108
-281 249 -344 435 -16 47 -23 98 -27 185 -6 157 10 237 77 373 43 86 65 117
133 185 127 128 246 196 402 231 88 20 293 15 380 -9z m1885 -745 l0 -740
-155 0 -155 0 0 25 c0 30 -1 30 -70 4 -77 -31 -250 -38 -340 -14 -207 54 -379
227 -419 423 -65 317 160 621 489 660 86 10 196 -1 274 -28 33 -11 63 -20 68
-20 4 0 8 97 8 215 l0 215 150 0 150 0 0 -740z m1300 0 l0 -740 -150 0 -150 0
0 26 c0 23 -3 25 -22 19 -103 -33 -163 -44 -243 -44 -169 -2 -297 50 -412 164
-259 258 -210 666 102 854 94 57 156 74 285 78 113 4 138 0 273 -44 16 -5 17
9 17 211 l0 216 150 0 150 0 0 -740z m-1702 -1082 c1 -104 3 -188 5 -188 1 0
27 9 57 21 70 27 190 35 272 20 272 -53 449 -320 383 -576 -45 -171 -179 -305
-352 -350 -74 -19 -194 -19 -263 1 -104 29 -100 29 -100 0 l0 -26 -130 0 -130
0 0 638 c0 351 3 642 7 646 4 3 61 5 127 4 l121 -3 3 -187z m-1508 -257 c0
-241 -4 -460 -9 -487 -47 -245 -251 -391 -519 -371 -194 15 -346 124 -414 296
-18 48 -22 81 -26 224 l-4 167 160 0 160 0 4 -133 c4 -149 17 -186 77 -221 46
-27 138 -26 184 3 63 38 62 32 65 519 l3 442 159 0 160 0 0 -439z m2883 105
c187 -36 302 -137 314 -276 l6 -60 -151 0 -151 0 -3 37 c-4 53 -41 76 -126 81
-72 4 -119 -8 -129 -33 -9 -25 20 -40 177 -91 226 -73 309 -123 367 -221 22
-38 25 -53 21 -112 -4 -80 -33 -133 -99 -180 -157 -114 -521 -110 -692 8 -67
46 -107 120 -107 198 l0 53 145 0 145 0 0 -28 c0 -56 69 -92 174 -92 67 0 109
16 114 43 4 22 -46 45 -205 93 -214 65 -319 136 -354 241 -14 43 -7 129 14
170 71 137 312 212 540 169z m-2111 -16 c116 -36 222 -119 281 -221 84 -145
76 -342 -20 -486 -166 -250 -533 -285 -751 -72 -225 220 -175 576 102 740 102
60 266 77 388 39z"/>
<path d="M1243 3520 c-115 -23 -233 -118 -287 -230 -29 -60 -31 -73 -31 -170
0 -97 2 -110 31 -170 120 -250 450 -313 647 -124 93 89 133 195 124 328 -16
244 -241 414 -484 366z"/>
<path d="M2759 3185 c-60 -19 -131 -83 -160 -143 -28 -57 -30 -157 -5 -214 43
-98 139 -161 246 -162 80 -1 138 24 197 83 57 57 76 112 71 200 -3 62 -8 76
-43 127 -71 102 -193 145 -306 109z"/>
<path d="M4064 3182 c-83 -29 -137 -83 -170 -169 -21 -54 -15 -143 14 -200 42
-82 154 -153 242 -153 87 0 187 62 237 148 24 40 28 58 28 122 0 64 -4 82 -28
122 -36 62 -100 115 -161 133 -64 19 -99 18 -162 -3z"/>
<path d="M3197 1646 c-164 -44 -228 -239 -120 -366 50 -58 104 -83 178 -83
208 0 309 252 158 395 -55 53 -141 74 -216 54z"/>
<path d="M2068 1639 c-49 -14 -117 -74 -139 -123 -22 -48 -25 -133 -6 -179 60
-142 241 -189 356 -90 94 80 113 203 46 305 -49 74 -164 113 -257 87z"/>
</g>
</svg>
